<svg id="Layer_1" data-name="Layer 1" xmlns="http://www.w3.org/2000/svg" viewBox="0 0 1000 1000"><path d="M382.25,297,502,651.47l120.09-357q9.38-28.12,14.07-39.13t15.51-19.84q10.82-8.82,29.57-8.83a49.57,49.57,0,0,1,25.42,6.85A50.6,50.6,0,0,1,725,251.7q6.66,11.37,6.67,22.9a74.66,74.66,0,0,1-2.17,17.13,154.06,154.06,0,0,1-5.41,18q-3.24,8.84-6.49,18.21l-128,345.49q-6.86,19.83-13.71,37.68a160.22,160.22,0,0,1-15.86,31.38,71.15,71.15,0,0,1-24,22.18q-15,8.65-36.6,8.65t-36.61-8.47a69.69,69.69,0,0,1-24.16-22.36A165.28,165.28,0,0,1,422.64,711q-6.86-17.67-13.7-37.5L283.08,330.86q-3.25-9.37-6.67-18.39A141.4,141.4,0,0,1,270.64,293a82.81,82.81,0,0,1-2.35-17.68q0-18.39,14.79-33.53t37.14-15.15q27.4,0,38.77,16.77T382.25,297Z"/></svg>