<svg id="Layer_1" data-name="Layer 1" xmlns="http://www.w3.org/2000/svg" viewBox="0 0 1000 1000"><path d="M228.1,286c0-48.37,33-59.36,65.23-59.36h35.18c37.37,0,55,14.66,67.42,55l104.8,338.59h1.47L605.53,281.6c12.46-40.3,30.05-55,67.43-55h33.71c32.25,0,65.23,11,65.23,59.36V714.73c0,30-14.66,58.63-53.5,58.63s-53.5-28.58-53.5-58.63V387.87h-1.47L551.3,738.18c-8.06,24.92-26.38,35.18-51.3,35.18s-43.24-10.26-51.3-35.18L336.57,387.87H335.1V714.73c0,30-14.65,58.63-53.5,58.63s-53.5-28.58-53.5-58.63Z"/></svg>