<svg id="Layer_1" data-name="Layer 1" xmlns="http://www.w3.org/2000/svg" viewBox="0 0 1000 1000"><path d="M675.45,291.55v277q0,36.06-3.07,61.31A193.69,193.69,0,0,1,658.5,681q-18,43.63-59.51,68T498,773.36q-53.74,0-89.62-17t-57.88-54.82Q339,681.4,331.76,655.07a189.65,189.65,0,0,1-7.21-50.13q0-25.23,14.07-38.58T374.68,553q21.27,0,32.1,12.26t16.59,38.23q6.12,27.78,12.26,44.36a66.21,66.21,0,0,0,20.55,28.49q14.43,11.89,41.12,11.9,71,0,71-104.22V291.55q0-32.46,14.25-48.68t38.76-16.23q24.89,0,39.49,16.23T675.45,291.55Z"/></svg>