<svg id="Layer_1" data-name="Layer 1" xmlns="http://www.w3.org/2000/svg" viewBox="0 0 1000 1000"><path d="M498.2,226.64q82.21,0,141.19,33.36t89.25,94.84q30.3,61.5,30.3,144.44,0,61.31-16.59,111.43t-49.77,86.92q-33.18,36.78-81.5,56.26T500.36,773.36q-62,0-111.07-20t-81.87-56.44q-32.82-36.42-49.59-87.64T241.06,498.56q0-60.94,17.49-111.8t50.67-86.55q33.18-35.7,80.79-54.64T498.2,226.64ZM650.38,498.56q0-58.06-18.75-100.62t-53.55-64.37q-34.82-21.82-79.88-21.82-32.11,0-59.33,12.08A130.48,130.48,0,0,0,392,359q-19.67,23.08-31,59t-11.36,80.6q0,45.07,11.36,81.5t32.09,60.41q20.73,24,47.61,35.88t59,11.9q41.11,0,75.55-20.55T630,604.22Q650.38,561.32,650.38,498.56Z"/></svg>