<svg id="Layer_1" data-name="Layer 1" xmlns="http://www.w3.org/2000/svg" viewBox="0 0 1000 1000"><path d="M710.07,605.67q0,48-24.7,86.19t-72.31,59.86q-47.61,21.64-112.88,21.64-78.26,0-129.11-29.57a171.94,171.94,0,0,1-58.6-56.8q-22.55-35.52-22.54-69.06a46.12,46.12,0,0,1,13.52-33.36Q317,570.7,337.89,570.68q17,0,28.68,10.82t20,32.1q10.1,25.24,21.82,42.19t33,28q21.27,11,55.9,11,47.59,0,77.35-22.18t29.75-55.35q0-26.33-16-42.74t-41.48-25.06q-25.43-8.65-68-18.4-57-13.34-95.39-31.19t-60.94-48.69Q300,420.3,300,374.5q0-43.63,23.8-77.54t68.88-52.11q45.07-18.21,106-18.21,48.68,0,84.21,12.08t59,32.1q23.45,20,34.26,42T687,355.75q0,19.11-13.52,34.44t-33.72,15.32q-18.4,0-28-9.19T591.06,366.2q-14.43-29.93-34.62-46.7t-64.91-16.77q-41.49,0-66.9,18.21T399.2,364.76q0,15.87,8.66,27.41T431.66,412a160.07,160.07,0,0,0,30.65,13q15.51,4.69,51.21,13.7a807.8,807.8,0,0,1,81,23.08q36.24,12.63,61.66,30.66a126.05,126.05,0,0,1,39.67,45.62Q710.07,565.64,710.07,605.67Z"/></svg>