<svg id="Layer_1" data-name="Layer 1" xmlns="http://www.w3.org/2000/svg" viewBox="0 0 1000 1000"><path d="M334.23,226.64H478.56q56.3,0,96.59,10.44t73.09,39.16q85.39,73.1,85.4,222.27,0,49.23-8.57,89.88t-26.48,73.28A227.8,227.8,0,0,1,652.72,720a189.79,189.79,0,0,1-48.11,31.7,217.37,217.37,0,0,1-56.13,16.78q-30,4.86-67.69,4.85H336.47q-30.21,0-45.5-9.14t-20-25.73q-4.66-16.59-4.66-43.07V294.51q0-35.79,16-51.84T334.23,226.64Zm42.89,87.64V685.35H461q27.59,0,43.26-1.49a134.78,134.78,0,0,0,32.44-7.46,88.36,88.36,0,0,0,29.09-16.78q55.57-47,55.57-161.86,0-80.91-24.43-121.2t-60.23-51.28q-35.79-11-86.52-11Z"/></svg>