<svg id="Layer_1" data-name="Layer 1" xmlns="http://www.w3.org/2000/svg" viewBox="0 0 1000 1000"><path d="M416.87,290.83,622.8,602.42V288q0-30.66,13.16-46t35.52-15.33q23.09,0,36.43,15.33t13.34,46V703.76q0,69.6-57.7,69.6a76.53,76.53,0,0,1-26-4.15,65.85,65.85,0,0,1-21.64-13.16A128,128,0,0,1,597.19,735q-8.66-12.08-17.31-24.7L379,402.27V712.05q0,30.3-14.07,45.8t-36.06,15.51q-22.72,0-36.43-15.69t-13.7-45.62V304.18q0-26,5.77-40.76,6.86-16.23,22.72-26.5a61.78,61.78,0,0,1,34.26-10.28q14.42,0,24.7,4.69a59.46,59.46,0,0,1,18,12.62,130.71,130.71,0,0,1,15.86,20.56Q408.22,277.13,416.87,290.83Z"/></svg>