<svg id="Layer_1" data-name="Layer 1" xmlns="http://www.w3.org/2000/svg" viewBox="0 0 1000 1000"><path d="M381.89,291.55V476.92L592.14,257.65q15.15-15.85,25.79-23.44t28.31-7.57q23.07,0,37.32,13.52a43.78,43.78,0,0,1,14.25,33q0,23.44-24.16,46.52L543.46,443,693.48,658q15.87,22.37,23.8,39.13t7.94,32.63q0,17.68-13.89,30.66t-37.68,13q-22.36,0-36.43-9.56a82,82,0,0,1-23.8-25.42q-9.74-15.87-17.31-28.85L469.53,514.79l-87.64,84V708.09q0,33.18-15.14,49.22T327.8,773.36a52.3,52.3,0,0,1-26.33-7.21A50.41,50.41,0,0,1,282,746.67a63.27,63.27,0,0,1-6.13-23.44q-1.1-13.34-1.09-38.58V291.55q0-32.46,14.25-48.68t38.77-16.23q24.15,0,39.13,16.05T381.89,291.55Z"/></svg>