<svg id="Layer_1" data-name="Layer 1" xmlns="http://www.w3.org/2000/svg" viewBox="0 0 1000 1000"><path d="M752.26,549.41V650.75q0,20.19-4,32.27t-14.61,21.82q-10.63,9.74-27.23,18.75-48,26-92.32,37.87t-96.65,11.9q-60.94,0-111.07-18.75t-85.48-54.46q-35.34-35.7-54.27-86.55T247.74,500q0-61.67,18.39-112.88t54.09-86.91q35.71-35.7,86.92-54.64t116.12-18.93q53.37,0,94.49,14.24t66.71,35.89q25.6,21.63,38.59,45.8t13,42.91q0,20.2-15,34.44a50.21,50.21,0,0,1-35.88,14.25A48.26,48.26,0,0,1,663,408.76a50.29,50.29,0,0,1-17.85-15.15q-19.85-31-33.54-46.88t-37-26.69q-23.26-10.82-59.32-10.82-37.16,0-66.36,12.81a137,137,0,0,0-50,37.14q-20.75,24.34-31.73,59.69t-11,78.25q0,93,42.73,143.18t119.19,50.13A243,243,0,0,0,588,680.68a353.41,353.41,0,0,0,66.18-27.77V567.08H571.23q-29.94,0-45.26-9t-15.33-30.65q0-17.67,12.8-29.21t34.8-11.54H679.78q22.35,0,37.86,4a42.8,42.8,0,0,1,25.07,17.67Q752.25,522,752.26,549.41Z"/></svg>