<svg id="Layer_1" data-name="Layer 1" xmlns="http://www.w3.org/2000/svg" viewBox="0 0 1000 1000"><path d="M445.18,708.09V540.39L316.08,340.24q-17-27-24-42.2t-7-26.32q0-18.39,14.25-31.74t35.16-13.34q22,0,33.36,12.44t34.08,49.59l98.81,160.48,99.9-160.48q9-14.79,15.14-24.89a155,155,0,0,1,13.53-18.93,53.59,53.59,0,0,1,16.41-13.52q9-4.68,22-4.69,20.19,0,33.71,13.16t13.53,30.48a63.88,63.88,0,0,1-6.85,28.13q-6.86,14.05-23.44,38.94l-132.36,203v167.7q0,32.82-15.14,49t-38.59,16.23q-23.81,0-38.59-16.05T445.18,708.09Z"/></svg>