<svg id="Layer_1" data-name="Layer 1" xmlns="http://www.w3.org/2000/svg" viewBox="0 0 1000 1000"><path d="M423.36,534.28H385.23V707q0,34.11-15,50.24T331,773.36q-26,0-40.34-16.87T276.32,707V293.37q0-35.19,15.77-51t51-15.77H520.17q36.66,0,62.7,3.12t46.94,12.65a136,136,0,0,1,44.73,30.43,133.45,133.45,0,0,1,29.52,46,153.47,153.47,0,0,1,10.08,55.55q0,60.15-33.92,96.07t-102.85,51q29,15.4,55.37,45.47a462.3,462.3,0,0,1,47.12,64q20.7,33.92,32.27,61.23t11.55,37.59q0,10.63-6.79,21.08a47.45,47.45,0,0,1-18.52,16.5q-11.73,6-27.13,6.05-18.35,0-30.8-8.62A82.79,82.79,0,0,1,619,742.93q-9-13.2-24.39-38.87L551,631.46q-23.47-40-42-60.87T471.4,542Q452.34,534.28,423.36,534.28ZM485.7,308.41H385.23V456.18h97.54q39.23,0,66-6.78t40.88-23.1q14.11-16.32,14.12-44.92,0-22.36-11.37-39.42t-31.53-25.48Q541.8,308.41,485.7,308.41Z"/></svg>