<svg id="Layer_1" data-name="Layer 1" xmlns="http://www.w3.org/2000/svg" viewBox="0 0 1000 1000"><path d="M723.53,716.2c-11,41.77-28.59,57.16-72.56,57.16-45.44,0-61.56-19.05-71.82-59.36L500.73,392.27h-1.46L420.85,714c-9.53,40.31-26.38,59.36-71.82,59.36-44,0-61.56-15.39-72.56-57.16L173.14,315.32c-2.93-11-5.86-22.72-5.86-34.45,0-36.64,30-54.23,57.89-54.23,30.78,0,49.11,13.92,56.43,49.1l71.09,350.31h1.47l82.08-354.71c6.6-29.31,18.32-44.7,63-44.7,50.57,0,60.83,24.18,68.15,57.16l79.89,342.25h1.46l71.82-350.31c7.33-35.18,25.65-49.1,54.24-49.1,27.85,0,57.89,17.59,57.89,54.23,0,11.73-2.93,23.45-5.86,34.45Z"/></svg>