<svg id="Layer_1" data-name="Layer 1" xmlns="http://www.w3.org/2000/svg" viewBox="0 0 1000 1000"><path d="M507.09,773.36H340q-36.18,0-51.65-16.22t-15.48-51.65v-411q0-36.17,15.85-52T340,226.64H517.16q39.15,0,67.87,4.85t51.46,18.64a135,135,0,0,1,34.31,29.28,129,129,0,0,1,22.75,39.16,131.08,131.08,0,0,1,7.83,45.31q0,82-82,120.08,107.77,34.32,107.78,133.51,0,45.88-23.5,82.61a141,141,0,0,1-63.4,54.26q-25,10.45-57.43,14.73T507.09,773.36ZM383.64,309.8V451.15H485.08q41.4,0,64-7.84t34.5-29.83a67.28,67.28,0,0,0,9.32-35.06q0-41.39-29.46-55T473.52,309.8ZM498.88,530.58H383.64V690.2h119q112.25,0,112.25-80.93,0-41.4-29.08-60T498.88,530.58Z"/></svg>