<svg id="Layer_1" data-name="Layer 1" xmlns="http://www.w3.org/2000/svg" viewBox="0 0 1000 1000"><path d="M500,226.87c169.38,0,261.24,108,261.24,253.18,0,72.92-23,143.1-71,191.26L735.4,711.9a25.13,25.13,0,0,1,9.33,19.26c0,19.26-19.37,42-40.19,42-17.22,0-23.68-5.51-33.73-14.45L625.6,718.09C590.43,736,548.8,745.61,500,745.61c-185.16,0-261.24-115.58-261.24-265.56C238.76,334.89,330.62,226.87,500,226.87Zm0,427.92q26.91,0,47.37-6.19l-40.19-35.77a25.2,25.2,0,0,1-9.33-19.26c0-19.27,19.37-42,40.19-42,17.22,0,23.68,5.5,33.73,14.45l40.91,35.77c21.53-31,30.86-74.3,30.86-121.77,0-94.94-47.37-162.36-143.54-162.36S356.46,385.11,356.46,480.05,389.48,654.79,500,654.79Z"/></svg>