<svg id="Layer_1" data-name="Layer 1" xmlns="http://www.w3.org/2000/svg" viewBox="0 0 1000 1000"><path d="M317,661.56,435.27,488.82,335.73,335.19q-14.07-22.35-21.1-38.41t-7-30.83q0-15.15,13.53-27.23t33-12.08q22.36,0,34.8,13.16t34.45,48.87L502.7,417.05l84.75-128.38q10.45-16.23,17.86-27.77a144.79,144.79,0,0,1,14.24-19.11,45.73,45.73,0,0,1,15.33-11.36,47.64,47.64,0,0,1,19.65-3.79q20.19,0,33,12.08t12.8,28.67q0,24.17-27.77,65.64L568.34,488.82,680.5,661.56q15.15,22.73,22,37.69t6.85,28.31a44.85,44.85,0,0,1-6.13,23.08,44.26,44.26,0,0,1-17.31,16.59,51.63,51.63,0,0,1-25.25,6.13q-15.13,0-25.6-6.31a54.3,54.3,0,0,1-16.95-15.69Q611.62,742,594,714.94L500.9,568.52,402.09,719.27q-11.55,18-16.41,25.24A96.49,96.49,0,0,1,374,758.58a50.58,50.58,0,0,1-16.23,10.81q-9.39,4-22,4-19.47,0-32.28-11.9t-12.8-34.62Q290.65,700.16,317,661.56Z"/></svg>