<svg id="Layer_1" data-name="Layer 1" xmlns="http://www.w3.org/2000/svg" viewBox="0 0 1000 1050"><path d="M735.67,622.37q0,25.25-12.44,54.64t-39.13,57.7q-26.69,28.32-68.16,46t-96.65,17.67q-41.83,0-76.09-7.93A213.75,213.75,0,0,1,381,765.72Q353,748.95,329.6,721.55a262.21,262.21,0,0,1-35.7-55.72A290.09,290.09,0,0,1,271.72,600a358.54,358.54,0,0,1-7.39-74.29q0-63.83,18.57-114.32T336.09,325a232.19,232.19,0,0,1,81.14-54.64q46.53-18.75,99.18-18.75,64.19,0,114.32,25.6t76.82,63.3q26.69,37.68,26.68,71.22,0,18.39-13,32.46t-31.38,14.06q-20.55,0-30.83-9.73T636.14,415q-20.92-39.31-49.23-58.79t-69.78-19.47q-66,0-105.12,50.13T372.88,529.33q0,61.67,17.31,102.6t49,61.13q31.74,20.19,74.29,20.19,46.17,0,78.08-22.9t48.15-67.26q6.84-20.91,17-34.08t32.45-13.16A45.42,45.42,0,0,1,722,589.19Q735.68,602.54,735.67,622.37Z"/></svg>