<svg id="Layer_1" data-name="Layer 1" xmlns="http://www.w3.org/2000/svg" viewBox="0 0 1000 1000"><path d="M277.67,545.8V291.55q0-32.46,14.6-48.68t38.41-16.23q24.88,0,39.49,16.23t14.61,48.68v260q0,44.35,9.92,74.11t35.16,46.16q25.23,16.41,70.68,16.41,62.74,0,88.72-33.36t26-101.16V291.55q0-32.81,14.43-48.86t38.59-16.05q24.15,0,39.13,16.05t15,48.86V545.8q0,62-12.08,103.5t-45.62,72.85a177.13,177.13,0,0,1-67.08,39q-38.24,12.25-89.44,12.26-60.94,0-104.94-13.16T331.4,719.45q-27.76-27.6-40.75-70.69T277.67,545.8Z"/></svg>