<svg id="Layer_1" data-name="Layer 1" xmlns="http://www.w3.org/2000/svg" viewBox="0 0 1000 1000"><path d="M630.91,704.48l-25.24-66.36H390.73l-25.25,67.8q-14.79,39.68-25.24,53.56T306,773.36q-20.21,0-35.7-14.78T254.77,725a74.88,74.88,0,0,1,3.6-22.36q3.61-11.55,11.91-32.1L405.51,327.26q5.78-14.79,13.89-35.53t17.31-34.44a70.45,70.45,0,0,1,24.16-22.18q15-8.46,37-8.47,22.35,0,37.32,8.47a71.89,71.89,0,0,1,24.16,21.82,153,153,0,0,1,15.51,28.67q6.31,15.33,16,40.93L729,667.7q16.23,38.94,16.23,56.61,0,18.41-15.33,33.72a50.36,50.36,0,0,1-37,15.33q-12.63,0-21.64-4.51a44.4,44.4,0,0,1-15.15-12.26Q650,748.83,643,732.79T630.91,704.48Zm-212-146.78h158L497.11,339.52Z"/></svg>